<?xml version="1.0" encoding="UTF-8"?>
<svg viewBox="0 0 537 200" xmlns="http://www.w3.org/2000/svg">
    <path d="m70.957 0h58.02l4.2842 0.058217 3.9591 0.11602c0.63398 0.024129 1.2553 0.050649 1.8645 0.079551l3.5124 0.20191c5.0602 0.34552 9.2072 0.88246 12.772 1.6043l2.2937 0.50852c2.5838 0.62505 4.8597 1.361 6.9834 2.2049l1.7866 0.74963c0.29277 0.12932 0.58334 0.26082 0.87216 0.39449l1.7156 0.82806 1.6955 0.8798c9.3098 4.9804 16.616 12.289 21.595 21.601l0.87954 1.696 0.82782 1.7161c0.13364 0.28891 0.2651 0.57956 0.39438 0.87241l0.74942 1.7871c0.8436 2.1243 1.5794 4.4008 2.2042 6.9854l0.50837 2.2944c0.7216 3.5656 1.2584 7.7138 1.6038 12.775l0.20185 3.5134c0.028893 0.60934 0.055406 1.2309 0.079528 1.865l0.11599 3.9603 0.0582 4.2854c0.004861 0.74254 0.007296 1.4995 0.007296 2.2714v53.494l-0.029146 4.4562c-0.009703 0.71408-0.021823 1.4142-0.03635 2.1007l-0.11599 3.9603c-0.024122 0.63416-0.050635 1.2557-0.079528 1.865l-0.20185 3.5134c-0.34542 5.0617-0.88221 9.2099-1.6038 12.775l-0.50837 2.2944c-0.62487 2.5845-1.3606 4.8611-2.2042 6.9854l-0.74942 1.7871c-0.12928 0.29285-0.26074 0.5835-0.39438 0.87241l-0.82782 1.7161-0.87954 1.696c-4.9789 9.3125-12.285 16.621-21.595 21.601l-1.6955 0.8798-1.7156 0.82806c-0.28882 0.13367-0.57939 0.26517-0.87216 0.39449l-1.7866 0.74963c-2.1237 0.84384-4.3996 1.5798-6.9834 2.2049l-2.2937 0.50852c-3.5645 0.7218-7.7116 1.2588-12.772 1.6043l-3.5124 0.20191c-0.60916 0.028902-1.2305 0.055422-1.8645 0.079551l-3.9591 0.11602-4.2842 0.058218c-0.74233 0.004862-1.4991 0.007297-2.2708 0.007297h-53.479l-4.4549-0.029154c-0.71388-0.009706-1.4138-0.021829-2.1001-0.036361l-3.9591-0.11602c-0.63398-0.024129-1.2553-0.050649-1.8645-0.079551l-3.5124-0.20191c-5.0602-0.34552-9.2072-0.88246-12.772-1.6043l-2.2937-0.50852c-2.5838-0.62505-4.8597-1.361-6.9834-2.2049l-1.7866-0.74963c-0.29277-0.12932-0.58333-0.26082-0.87216-0.39449l-1.7156-0.82806-1.6955-0.8798c-9.3098-4.9804-16.616-12.289-21.595-21.601l-0.87954-1.696-0.82782-1.7161c-0.13363-0.2889-0.2651-0.57956-0.39438-0.87241l-0.74942-1.7871c-0.8436-2.1243-1.5794-4.4008-2.2042-6.9854l-0.50837-2.2944c-0.72159-3.5656-1.2584-7.7138-1.6038-12.775l-0.20185-3.5134c-0.028893-0.60934-0.055405-1.2309-0.079528-1.865l-0.11599-3.9603-0.058201-4.2854v-58.037l0.058201-4.2854 0.11599-3.9603c0.024123-0.63416 0.050635-1.2557 0.079528-1.865l0.20185-3.5134c0.34542-5.0617 0.88221-9.2099 1.6038-12.775l0.50837-2.2944c0.62487-2.5845 1.3607-4.8611 2.2042-6.9854l0.74942-1.7871c0.12928-0.29285 0.26074-0.5835 0.39438-0.87241l0.82782-1.7161 0.87954-1.696c4.9789-9.3125 12.285-16.621 21.595-21.601l1.6955-0.8798 1.7156-0.82806c0.28882-0.13367 0.57939-0.26517 0.87216-0.39449l1.7866-0.74963c2.1237-0.84384 4.3996-1.5798 6.9834-2.2049l2.2937-0.50852c3.5645-0.7218 7.7116-1.2588 12.772-1.6043l3.5124-0.20191c0.60916-0.028901 1.2305-0.055421 1.8645-0.079551l3.9591-0.11602 4.2842-0.058217zm28.53 34.28h-26.424c-5.3388 0-9.7434 3.6685-10.192 8.4397l-0.037664 0.80498v112.94c0 4.8859 4.1236 8.8115 9.3493 9.2112l0.88063 0.033527h31.853c13.475 0 24.709-4.027 32.559-11.714 7.1597-7.0109 11.051-16.696 11.051-27.438 0-9.6651-3.8694-18.06-11.803-25.702-2.0779-2.0015-4.4415-3.966-7.2072-5.9799 0.6241-0.80468 1.2164-1.5961 1.7798-2.3774 5.3436-7.411 7.9521-13.822 7.9521-19.726 0-12.045-4.6023-22.215-13.275-29.297-7.178-5.8616-16.802-9.1993-26.486-9.1993zm23.15 68.633c2.5625 1.8446 4.7093 3.6106 6.5411 5.375 5.907 5.6898 8.6189 11.463 8.6189 18.273 0 7.9956-2.7921 15.04-7.9295 20.071-5.4409 5.3279-13.313 8.2745-23.095 8.6027l-1.8565 0.0308-31.323-0.001064c0.33003-2.7337 3.3184-7.3414 8.8619-13.361l1.8569-1.9743 2.0674-2.1164 2.3162-2.2969 2.6034-2.5156 17.461-16.281 5.3557-5.1156 3.2076-3.1669c1.0215-1.0247 1.9963-2.0197 2.9274-2.9882l1.3641-1.4332 1.0237-1.1027zm135.05-51.489c3.8277 0 4.711 0.86925 4.711 4.636v34.48c3.5333-6.5194 10.6-10.576 22.966-10.576 22.083 0 30.474 11.88 30.474 30.569v13.473c0 19.703-9.5693 30.279-32.241 30.279-21.788 0-32.241-10.576-32.241-30.279v-67.946c0-3.5156 0.76947-4.5072 3.9841-4.6238l2.3463-0.012191zm80.823 0c3.5725 0 4.5802 0.75721 4.6986 3.9207l0.012388 0.71532v76.349c0 8.3145 2.8286 10.797 6.9398 10.997l2.5878 0.029104c2.3136 0.078296 3.1512 0.53365 3.2663 3.0721l0.014177 0.679v1.0141c0 3.6219-0.7361 4.7809-4.1221 5.3604l-1.2296 0.11358-0.97518 0.030134-0.44519 0.001159c-9.1181 0-16.582-4.7487-17.054-18.054l-0.023701-1.3592v-78.232c0-3.5156 0.76947-4.5072 3.9841-4.6238l2.3463-0.012191zm36.363 29.989c3.5725 0 4.5802 0.75721 4.6986 3.9207l0.012388 0.71532v62.151c0 3.5156-0.76947 4.5072-3.9841 4.6238l-2.3463 0.012191c-3.5725 0-4.5802-0.75721-4.6986-3.9207l-0.012389-0.71532v-62.151c0-3.5156 0.76947-4.5072 3.9841-4.6238l0.72689-0.012191h1.6194zm54.618-1.4487c22.001 0 30.237 9.8132 30.608 25.93l0.013217 1.1618v41.144c0 3.5156-0.76947 4.5072-3.9841 4.6238l-0.72689 0.012191h-1.7666c-3.5725 0-4.5802-0.75721-4.6986-3.9207l-0.012388-0.71532v-41.144c0-10.721-3.6805-16.805-19.433-16.805-15.275 0-19.476 5.7215-19.716 15.844l-0.011167 0.9618v41.144c0 3.5156-0.76947 4.5072-3.9841 4.6238l-2.3463 0.012191c-3.5725 0-4.5802-0.75721-4.6986-3.9207l-0.012388-0.71532v-41.144c0-16.661 8.5387-27.092 30.769-27.092zm55.796-28.54c3.5725 0 4.5802 0.75721 4.6986 3.9207l0.012388 0.71532v92.14c0 3.5156-0.76947 4.5072-3.9841 4.6238l-2.3463 0.012191c-3.5725 0-4.5802-0.75721-4.6986-3.9207l-0.012388-0.71532v-92.14c0-3.5156 0.76947-4.5072 3.9841-4.6238l2.3463-0.012191zm42.841 29.989h1.7666l1.3613 0.027816c3.0552 0.14343 3.5184 0.87359 1.8243 2.9239l-0.79164 0.89228-23.446 24.262c-1.9139 2.0282-3.0916 3.6219-3.0916 5.5052 0 1.6479 0.789 3.2959 2.2684 4.9438l26.734 28.377 0.90437 1.0059c1.9797 2.3176 1.8312 3.1929-0.88028 3.4202l-1.2223 0.058276-2.4822 0.006754c-4.6479 0-6.7571-0.7495-9.7457-3.7564l-20.434-21.741c-5.0055-5.2155-6.036-8.5476-6.036-12.604 0-3.6671 0.90574-6.3156 5.1433-10.81l17.676-18.164c3.1442-3.2286 5.1459-4.2088 9.4235-4.3323l1.0291-0.013938zm-244.53 8.8373c-16.93 0-21.2 6.954-21.2 20.138v13.473c0 13.039 4.2694 20.138 21.2 20.138 17.077 0 21.052-7.0989 21.052-20.138v-13.473c0-13.184-4.1221-20.138-21.052-20.138zm-210.01-20.703c0.96365 1.0927 1.993 2.1696 3.0885 3.2317 3.417 3.3127 7.4857 6.5065 12.562 9.8659l2.766 1.788 1.9762 1.2275 3.3566 2.0116 14.792 8.5132 1.4735 0.87455-1.2725 1.3441-2.7605 2.8152-3.0326 2.9933-2.9993 2.8854-3.471 3.2733-13.346 12.396-4.3518 4.1407-2.567 2.5122-2.2975 2.3147-2.0696 2.1589-1.8668 2.0268 0.020208-66.373zm25.904-24.819c7.1672 0 14.355 2.4804 19.593 6.7572 6.2149 5.0751 9.4394 12.311 9.4394 21.291 0 3.5443-1.9855 8.1486-6.0037 13.722-0.58868 0.81645-1.2174 1.6503-1.8901 2.5068l-1.9774-1.1865-4.7563-2.7679-8.4185-4.81-4.7155-2.775-2.8861-1.7772-2.6077-1.6848c-4.5232-2.9935-8.0962-5.7916-11.023-8.6289-6.0375-5.8533-9.3958-11.975-10.398-19.007l-0.18938-1.6413 25.834 0.0022156zm274.65 7.2747c3.9749 0 7.0665 3.1872 7.0665 7.0989 0 3.7667-3.0916 6.954-7.0665 6.954-4.1221 0-7.361-3.0424-7.361-6.954s3.2388-7.0989 7.361-7.0989z"/>
</svg>
